<svg width="1417" height="291" viewBox="0 0 1417 291" fill="none" xmlns="http://www.w3.org/2000/svg">
<path d="M229.376 17.6192C218.587 6.83055 204.089 0.424805 187.905 0.424805C171.721 0.424805 156.886 7.1677 146.434 17.6192C135.645 28.4078 129.238 42.905 129.238 59.088C129.238 63.808 133.284 67.8537 138.005 67.8537C142.725 67.8537 146.771 63.808 146.771 59.088C146.771 47.6251 151.491 37.1736 158.909 29.7564C166.326 22.3392 176.779 17.6192 188.242 17.6192C199.706 17.6192 210.158 22.3392 217.576 29.7564C224.993 37.1736 229.713 47.6251 229.713 59.088C229.713 70.5509 224.993 81.0024 217.576 88.4196C210.158 95.8367 199.706 100.557 188.242 100.557C187.905 100.557 187.568 100.557 187.568 100.557H16.9626C12.2423 100.557 8.19629 104.265 8.19629 109.323C8.19629 114.38 11.5679 117.751 16.6254 117.751H187.231C187.568 117.751 187.568 117.751 187.905 117.751C204.089 117.751 218.924 111.008 229.376 100.557C240.166 89.7681 246.572 75.2709 246.572 59.088C246.572 42.905 239.828 28.0707 229.376 17.6192Z" fill="#009DCF"/>
<path d="M287.828 208.678C279.061 199.913 267.261 194.855 254.111 194.855C253.774 194.855 253.437 194.855 253.437 194.855H120.931C116.211 194.855 112.165 198.564 112.165 203.621C112.165 208.004 116.211 212.05 120.931 212.05H253.437C253.774 212.05 253.774 212.05 254.111 212.05C262.54 212.05 269.958 215.421 275.69 220.816C281.084 226.21 284.456 233.964 284.456 242.393C284.456 250.821 281.084 258.239 275.69 263.97C270.295 269.364 262.54 272.736 254.111 272.736C245.682 272.736 238.265 269.364 232.533 263.97C227.138 258.576 223.766 250.821 223.766 242.393C223.766 237.673 219.721 233.627 215 233.627C210.28 233.627 206.571 237.673 206.571 242.393C206.571 255.541 211.966 267.342 220.395 276.107C229.161 284.873 240.962 289.93 254.111 289.93C267.261 289.93 279.061 284.536 287.828 276.107C296.594 267.342 301.651 255.541 301.651 242.393C301.651 229.244 296.257 217.444 287.828 208.678Z" fill="#009DCF"/>
<path fill-rule="evenodd" clip-rule="evenodd" d="M0.703125 203.484C0.703125 198.719 4.56273 194.855 9.32378 194.855H87.1042C91.8652 194.855 95.7248 198.719 95.7248 203.484C95.7248 208.25 91.8652 212.113 87.1042 212.113H9.32378C4.56273 212.113 0.703125 208.25 0.703125 203.484Z" fill="#009DCF"/>
<path fill-rule="evenodd" clip-rule="evenodd" d="M251.906 132.543C245.615 146.68 236.229 167.722 211.728 169.537C203.356 170.158 196.87 169.418 191.549 167.47C186.092 165.473 182.579 162.46 179.96 159.878C179.119 159.049 178.456 158.372 177.898 157.802C176.546 156.42 175.812 155.67 174.663 154.932C173.598 154.248 171.883 153.461 168.144 153.461C164.175 153.461 162.359 154.214 161.357 154.8C160.166 155.497 159.363 156.335 157.498 158.278C157.318 158.465 157.128 158.663 156.927 158.872C154.791 161.093 151.799 164.044 147.096 166.24C142.433 168.417 136.753 169.561 129.404 169.561H23.2889C18.5331 169.561 14.6777 165.685 14.6777 160.903C14.6777 156.121 18.5331 152.245 23.2889 152.245H129.404C134.989 152.245 138.04 151.376 139.842 150.535C141.604 149.712 142.812 148.638 144.548 146.834C144.727 146.648 144.92 146.444 145.127 146.225C146.759 144.497 149.274 141.837 152.691 139.837C156.845 137.404 161.796 136.145 168.144 136.145C174.722 136.145 179.744 137.65 183.929 140.336C186.898 142.242 189.426 144.851 191.063 146.541C191.426 146.916 191.745 147.246 192.016 147.512C193.765 149.236 195.226 150.388 197.441 151.199C199.792 152.06 203.675 152.771 210.462 152.268C223.438 151.307 229.211 141.142 236.185 125.471C236.456 124.862 236.73 124.242 237.008 123.613C239.925 117.016 243.285 109.418 247.805 103.67C253.252 96.7433 261.041 91.6444 272.116 92.6899C287.056 94.1004 294.782 106.668 299.025 116.391C301.276 121.547 302.979 126.899 304.356 131.304L304.499 131.764C305.908 136.272 306.833 139.233 307.701 141.041C308.652 143.023 311.161 145.346 316.33 147.425C321.335 149.439 327.627 150.73 334.108 151.494C340.516 152.248 346.715 152.443 351.346 152.444C353.65 152.445 355.54 152.397 356.839 152.351C357.489 152.327 357.989 152.304 358.319 152.287C358.484 152.279 358.606 152.272 358.682 152.268L358.762 152.263L358.775 152.262L358.775 152.262C363.52 151.961 367.611 155.582 367.913 160.353C368.215 165.125 364.612 169.24 359.866 169.543L359.319 160.903C359.866 169.543 359.864 169.543 359.862 169.544L359.843 169.545L359.803 169.547C359.769 169.549 359.724 169.552 359.667 169.555C359.554 169.562 359.393 169.571 359.189 169.581C358.78 169.602 358.195 169.629 357.456 169.655C355.979 169.709 353.881 169.761 351.343 169.76C346.288 169.759 339.381 169.549 332.104 168.692C324.9 167.844 316.927 166.317 309.931 163.502C303.098 160.752 295.87 156.236 292.189 148.565C290.746 145.556 289.454 141.404 288.275 137.617C288.158 137.239 288.041 136.865 287.926 136.495C286.541 132.065 285.083 127.539 283.254 123.348C279.34 114.378 275.232 110.376 270.506 109.93C266.632 109.564 264.105 110.862 261.314 114.41C258.209 118.359 255.717 123.967 252.481 131.25C252.292 131.675 252.1 132.106 251.906 132.543Z" fill="black"/>
<path d="M535.92 183H477.42L466.26 210H436.38L492.54 84H521.34L577.68 210H547.08L535.92 183ZM526.74 160.86L506.76 112.62L486.78 160.86H526.74ZM588.773 113.16H616.853V210H588.773V113.16ZM602.813 99.66C597.653 99.66 593.453 98.16 590.213 95.16C586.973 92.16 585.353 88.44 585.353 84C585.353 79.56 586.973 75.84 590.213 72.84C593.453 69.84 597.653 68.34 602.813 68.34C607.973 68.34 612.173 69.78 615.413 72.66C618.653 75.54 620.273 79.14 620.273 83.46C620.273 88.14 618.653 92.04 615.413 95.16C612.173 98.16 607.973 99.66 602.813 99.66ZM669.733 125.94C673.093 121.26 677.593 117.72 683.233 115.32C688.993 112.92 695.593 111.72 703.033 111.72V137.64C699.913 137.4 697.813 137.28 696.733 137.28C688.693 137.28 682.393 139.56 677.833 144.12C673.273 148.56 670.993 155.28 670.993 164.28V210H642.913V113.16H669.733V125.94ZM721.182 84H778.422C792.102 84 804.162 86.64 814.602 91.92C825.162 97.08 833.322 104.4 839.082 113.88C844.962 123.36 847.902 134.4 847.902 147C847.902 159.6 844.962 170.64 839.082 180.12C833.322 189.6 825.162 196.98 814.602 202.26C804.162 207.42 792.102 210 778.422 210H721.182V84ZM776.982 186.06C789.582 186.06 799.602 182.58 807.042 175.62C814.602 168.54 818.382 159 818.382 147C818.382 135 814.602 125.52 807.042 118.56C799.602 111.48 789.582 107.94 776.982 107.94H750.342V186.06H776.982ZM906.973 111.72C921.973 111.72 933.493 115.32 941.533 122.52C949.573 129.6 953.593 140.34 953.593 154.74V210H927.313V197.94C922.033 206.94 912.193 211.44 897.793 211.44C890.353 211.44 883.873 210.18 878.353 207.66C872.953 205.14 868.813 201.66 865.933 197.22C863.053 192.78 861.613 187.74 861.613 182.1C861.613 173.1 864.973 166.02 871.693 160.86C878.533 155.7 889.033 153.12 903.193 153.12H925.513C925.513 147 923.653 142.32 919.933 139.08C916.213 135.72 910.633 134.04 903.193 134.04C898.033 134.04 892.933 134.88 887.893 136.56C882.973 138.12 878.773 140.28 875.293 143.04L865.213 123.42C870.493 119.7 876.793 116.82 884.113 114.78C891.553 112.74 899.173 111.72 906.973 111.72ZM904.813 192.54C909.613 192.54 913.873 191.46 917.593 189.3C921.313 187.02 923.953 183.72 925.513 179.4V169.5H906.253C894.733 169.5 888.973 173.28 888.973 180.84C888.973 184.44 890.353 187.32 893.113 189.48C895.993 191.52 899.893 192.54 904.813 192.54ZM1041.47 205.32C1038.71 207.36 1035.29 208.92 1031.21 210C1027.25 210.96 1023.05 211.44 1018.61 211.44C1007.09 211.44 998.147 208.5 991.787 202.62C985.547 196.74 982.427 188.1 982.427 176.7V136.92H967.487V115.32H982.427V91.74H1010.51V115.32H1034.63V136.92H1010.51V176.34C1010.51 180.42 1011.53 183.6 1013.57 185.88C1015.73 188.04 1018.73 189.12 1022.57 189.12C1027.01 189.12 1030.79 187.92 1033.91 185.52L1041.47 205.32ZM1096.29 111.72C1111.29 111.72 1122.81 115.32 1130.85 122.52C1138.89 129.6 1142.91 140.34 1142.91 154.74V210H1116.63V197.94C1111.35 206.94 1101.51 211.44 1087.11 211.44C1079.67 211.44 1073.19 210.18 1067.67 207.66C1062.27 205.14 1058.13 201.66 1055.25 197.22C1052.37 192.78 1050.93 187.74 1050.93 182.1C1050.93 173.1 1054.29 166.02 1061.01 160.86C1067.85 155.7 1078.35 153.12 1092.51 153.12H1114.83C1114.83 147 1112.97 142.32 1109.25 139.08C1105.53 135.72 1099.95 134.04 1092.51 134.04C1087.35 134.04 1082.25 134.88 1077.21 136.56C1072.29 138.12 1068.09 140.28 1064.61 143.04L1054.53 123.42C1059.81 119.7 1066.11 116.82 1073.43 114.78C1080.87 112.74 1088.49 111.72 1096.29 111.72ZM1094.13 192.54C1098.93 192.54 1103.19 191.46 1106.91 189.3C1110.63 187.02 1113.27 183.72 1114.83 179.4V169.5H1095.57C1084.05 169.5 1078.29 173.28 1078.29 180.84C1078.29 184.44 1079.67 187.32 1082.43 189.48C1085.31 191.52 1089.21 192.54 1094.13 192.54ZM1178.94 211.44C1174.02 211.44 1169.88 209.76 1166.52 206.4C1163.16 203.04 1161.48 198.84 1161.48 193.8C1161.48 188.64 1163.16 184.5 1166.52 181.38C1169.88 178.14 1174.02 176.52 1178.94 176.52C1183.86 176.52 1188 178.14 1191.36 181.38C1194.72 184.5 1196.4 188.64 1196.4 193.8C1196.4 198.84 1194.72 203.04 1191.36 206.4C1188 209.76 1183.86 211.44 1178.94 211.44ZM1257.01 172.02L1243.51 185.34V210H1215.43V76.44H1243.51V152.04L1284.55 113.16H1318.03L1277.71 154.2L1321.63 210H1287.61L1257.01 172.02ZM1411.72 188.4V210H1325.32V193.08L1374.64 134.76H1326.58V113.16H1410.1V130.08L1360.78 188.4H1411.72Z" fill="black"/>
</svg>
