<svg width="581" height="752" viewBox="0 0 581 752" fill="none" xmlns="http://www.w3.org/2000/svg">
<path fill-rule="evenodd" clip-rule="evenodd" d="M399.997 268.636C390.291 290.425 375.811 322.859 338.01 325.657C325.094 326.613 315.087 325.472 306.878 322.47C298.46 319.392 293.039 314.747 288.998 310.768C287.701 309.491 286.678 308.447 285.818 307.568C283.731 305.438 282.599 304.282 280.826 303.145C279.183 302.091 276.537 300.877 270.768 300.877C264.645 300.877 261.844 302.038 260.298 302.942C258.461 304.016 257.221 305.307 254.344 308.302C254.066 308.591 253.773 308.896 253.463 309.218C250.167 312.641 245.552 317.189 238.296 320.574C231.102 323.93 222.339 325.693 211 325.693H47.2854C39.9481 325.693 34 319.718 34 312.348C34 304.978 39.9481 299.003 47.2854 299.003H211C219.617 299.003 224.324 297.664 227.104 296.368C229.823 295.099 231.687 293.443 234.364 290.663C234.64 290.376 234.938 290.062 235.257 289.724C237.776 287.062 241.656 282.961 246.927 279.878C253.336 276.129 260.975 274.188 270.768 274.188C280.917 274.188 288.665 276.508 295.123 280.648C299.703 283.585 303.602 287.607 306.127 290.212C306.688 290.79 307.18 291.298 307.598 291.709C310.297 294.366 312.55 296.142 315.968 297.392C319.595 298.718 325.586 299.814 336.058 299.04C356.076 297.558 364.984 281.891 375.743 257.736C376.161 256.798 376.584 255.842 377.013 254.872C381.513 244.704 386.697 232.993 393.669 224.134C402.074 213.457 414.091 205.598 431.177 207.21C454.227 209.384 466.146 228.754 472.693 243.74C476.165 251.687 478.792 259.937 480.917 266.726L481.138 267.435C483.312 274.384 484.739 278.947 486.078 281.734C487.545 284.79 491.417 288.369 499.391 291.575C507.112 294.678 516.819 296.669 526.818 297.845C536.705 299.009 546.27 299.309 553.414 299.311C556.969 299.311 559.884 299.238 561.889 299.166C562.891 299.13 563.663 299.095 564.172 299.069C564.426 299.056 564.614 299.045 564.732 299.039L564.856 299.031L564.875 299.03L564.876 299.03C572.196 298.565 578.507 304.147 578.973 311.501C579.439 318.856 573.88 325.198 566.558 325.666L565.714 312.348C566.558 325.666 566.555 325.666 566.552 325.666L566.523 325.668L566.461 325.672C566.409 325.675 566.34 325.679 566.252 325.684C566.076 325.694 565.829 325.708 565.513 325.724C564.883 325.756 563.98 325.797 562.84 325.838C560.561 325.92 557.324 326.001 553.408 326C545.611 325.998 534.955 325.674 523.727 324.353C512.613 323.046 500.312 320.692 489.518 316.353C478.977 312.116 467.825 305.154 462.146 293.331C459.92 288.694 457.926 282.294 456.108 276.458C455.926 275.875 455.746 275.298 455.568 274.728C453.432 267.899 451.183 260.924 448.362 254.464C442.322 240.638 435.985 234.47 428.693 233.782C422.717 233.219 418.817 235.219 414.512 240.688C409.721 246.774 405.877 255.417 400.883 266.643C400.592 267.299 400.296 267.963 399.997 268.636Z" fill="black"/>
<path d="M365.238 91.5021C348.592 74.8733 326.224 65 301.256 65C276.287 65 253.399 75.393 237.274 91.5021C220.628 108.131 210.744 130.476 210.744 155.419C210.744 162.694 216.987 168.93 224.269 168.93C231.552 168.93 237.794 162.694 237.794 155.419C237.794 137.751 245.076 121.642 256.52 110.209C267.964 98.7771 284.09 91.5021 301.776 91.5021C319.462 91.5021 335.587 98.7771 347.031 110.209C358.475 121.642 365.758 137.751 365.758 155.419C365.758 173.087 358.475 189.196 347.031 200.628C335.587 212.06 319.462 219.335 301.776 219.335C301.256 219.335 300.735 219.335 300.735 219.335H37.5247C30.2422 219.335 24 225.052 24 232.846C24 240.641 29.2018 245.838 37.0045 245.838H300.215C300.735 245.838 300.735 245.838 301.256 245.838C326.224 245.838 349.112 235.445 365.238 219.335C381.883 202.707 391.767 180.362 391.767 155.419C391.767 130.476 381.363 107.611 365.238 91.5021Z" fill="#009DCF"/>
<path d="M455.417 385.985C441.892 372.474 423.686 364.68 403.399 364.68C402.879 364.68 402.358 364.68 402.358 364.68H197.928C190.645 364.68 184.403 370.396 184.403 378.191C184.403 384.946 190.645 391.182 197.928 391.182H402.358C402.879 391.182 402.879 391.182 403.399 391.182C416.403 391.182 427.847 396.378 436.69 404.693C445.013 413.007 450.215 424.959 450.215 437.95C450.215 450.941 445.013 462.374 436.69 471.208C428.367 479.522 416.403 484.718 403.399 484.718C390.394 484.718 378.95 479.522 370.107 471.208C361.784 462.893 356.583 450.941 356.583 437.95C356.583 430.675 350.341 424.439 343.058 424.439C335.776 424.439 330.054 430.675 330.054 437.95C330.054 458.216 338.376 476.404 351.381 489.915C364.906 503.426 383.112 511.22 403.399 511.22C423.686 511.22 441.892 502.906 455.417 489.915C468.941 476.404 476.744 458.216 476.744 437.95C476.744 417.684 468.421 399.496 455.417 385.985Z" fill="#009DCF"/>
<path fill-rule="evenodd" clip-rule="evenodd" d="M12.4395 377.98C12.4395 370.635 18.3941 364.68 25.7395 364.68H145.739C153.085 364.68 159.039 370.635 159.039 377.98C159.039 385.326 153.085 391.28 145.739 391.28H25.7395C18.3941 391.28 12.4395 385.326 12.4395 377.98Z" fill="#009DCF"/>
<path d="M57.72 617.32C66.7733 617.32 74.66 619.093 81.38 622.64C88.1 626.187 93.3267 631.413 97.06 638.32C100.793 645.227 102.66 653.58 102.66 663.38V717H79.98V693.48H35.18V717H12.78V663.38C12.78 653.58 14.6467 645.227 18.38 638.32C22.1133 631.413 27.34 626.187 34.06 622.64C40.78 619.093 48.6667 617.32 57.72 617.32ZM79.98 675.28V661.28C79.98 653.16 77.9733 647.047 73.96 642.94C69.9467 638.74 64.4867 636.64 57.58 636.64C50.58 636.64 45.0733 638.74 41.06 642.94C37.14 647.047 35.18 653.16 35.18 661.28V675.28H79.98ZM123.506 641.68H145.346V717H123.506V641.68ZM134.426 631.18C130.412 631.18 127.146 630.013 124.626 627.68C122.106 625.347 120.846 622.453 120.846 619C120.846 615.547 122.106 612.653 124.626 610.32C127.146 607.987 130.412 606.82 134.426 606.82C138.439 606.82 141.706 607.94 144.226 610.18C146.746 612.42 148.006 615.22 148.006 618.58C148.006 622.22 146.746 625.253 144.226 627.68C141.706 630.013 138.439 631.18 134.426 631.18ZM186.475 651.62C189.088 647.98 192.588 645.227 196.975 643.36C201.455 641.493 206.588 640.56 212.375 640.56V660.72C209.948 660.533 208.315 660.44 207.475 660.44C201.222 660.44 196.322 662.213 192.775 665.76C189.228 669.213 187.455 674.44 187.455 681.44V717H165.615V641.68H186.475V651.62ZM226.491 619H271.011C281.651 619 291.031 621.053 299.151 625.16C307.364 629.173 313.711 634.867 318.191 642.24C322.764 649.613 325.051 658.2 325.051 668C325.051 677.8 322.764 686.387 318.191 693.76C313.711 701.133 307.364 706.873 299.151 710.98C291.031 714.993 281.651 717 271.011 717H226.491V619ZM269.891 698.38C279.691 698.38 287.484 695.673 293.271 690.26C299.151 684.753 302.091 677.333 302.091 668C302.091 658.667 299.151 651.293 293.271 645.88C287.484 640.373 279.691 637.62 269.891 637.62H249.171V698.38H269.891ZM417.055 641.68V717H396.195V708.32C390.782 714.853 382.942 718.12 372.675 718.12C365.582 718.12 359.142 716.533 353.355 713.36C347.662 710.187 343.182 705.66 339.915 699.78C336.648 693.9 335.015 687.087 335.015 679.34C335.015 671.593 336.648 664.78 339.915 658.9C343.182 653.02 347.662 648.493 353.355 645.32C359.142 642.147 365.582 640.56 372.675 640.56C382.288 640.56 389.802 643.593 395.215 649.66V641.68H417.055ZM376.455 700.2C381.962 700.2 386.535 698.333 390.175 694.6C393.815 690.773 395.635 685.687 395.635 679.34C395.635 672.993 393.815 667.953 390.175 664.22C386.535 660.393 381.962 658.48 376.455 658.48C370.855 658.48 366.235 660.393 362.595 664.22C358.955 667.953 357.135 672.993 357.135 679.34C357.135 685.687 358.955 690.773 362.595 694.6C366.235 698.333 370.855 700.2 376.455 700.2ZM482.635 713.36C480.489 714.947 477.829 716.16 474.655 717C471.575 717.747 468.355 718.12 464.995 718.12C455.942 718.12 448.989 715.833 444.135 711.26C439.282 706.687 436.855 699.967 436.855 691.1V625.02H458.695V643.36H477.315V660.16H458.695V690.82C458.695 693.993 459.489 696.467 461.075 698.24C462.662 699.92 464.949 700.76 467.935 700.76C471.295 700.76 474.282 699.827 476.895 697.96L482.635 713.36ZM569.086 641.68V717H548.226V708.32C542.813 714.853 534.973 718.12 524.706 718.12C517.613 718.12 511.173 716.533 505.386 713.36C499.693 710.187 495.213 705.66 491.946 699.78C488.68 693.9 487.046 687.087 487.046 679.34C487.046 671.593 488.68 664.78 491.946 658.9C495.213 653.02 499.693 648.493 505.386 645.32C511.173 642.147 517.613 640.56 524.706 640.56C534.32 640.56 541.833 643.593 547.246 649.66V641.68H569.086ZM528.486 700.2C533.993 700.2 538.566 698.333 542.206 694.6C545.846 690.773 547.666 685.687 547.666 679.34C547.666 672.993 545.846 667.953 542.206 664.22C538.566 660.393 533.993 658.48 528.486 658.48C522.886 658.48 518.266 660.393 514.626 664.22C510.986 667.953 509.166 672.993 509.166 679.34C509.166 685.687 510.986 690.773 514.626 694.6C518.266 698.333 522.886 700.2 528.486 700.2Z" fill="black"/>
</svg>
