<svg width="762" height="752" viewBox="0 0 762 752" fill="none" xmlns="http://www.w3.org/2000/svg">
<g clip-path="url(#clip0)">
<path fill-rule="evenodd" clip-rule="evenodd" d="M490.497 268.636C480.791 290.425 466.311 322.859 428.51 325.657C415.594 326.613 405.587 325.472 397.378 322.47C388.96 319.392 383.539 314.747 379.498 310.768C378.201 309.491 377.178 308.447 376.318 307.568C374.231 305.438 373.099 304.282 371.326 303.145C369.683 302.091 367.037 300.877 361.268 300.877C355.145 300.877 352.344 302.038 350.798 302.942C348.961 304.016 347.721 305.307 344.844 308.302C344.566 308.591 344.273 308.896 343.963 309.218C340.667 312.641 336.052 317.189 328.796 320.574C321.602 323.93 312.839 325.693 301.5 325.693H137.785C130.448 325.693 124.5 319.718 124.5 312.348C124.5 304.978 130.448 299.003 137.785 299.003H301.5C310.117 299.003 314.824 297.664 317.604 296.368C320.323 295.099 322.187 293.443 324.864 290.663C325.14 290.376 325.438 290.062 325.757 289.724C328.276 287.062 332.156 282.961 337.427 279.878C343.836 276.129 351.475 274.188 361.268 274.188C371.417 274.188 379.165 276.508 385.623 280.648C390.203 283.585 394.102 287.607 396.627 290.212C397.188 290.79 397.68 291.298 398.098 291.709C400.797 294.366 403.05 296.142 406.468 297.392C410.095 298.718 416.086 299.814 426.558 299.04C446.576 297.558 455.484 281.891 466.243 257.736C466.661 256.798 467.084 255.842 467.513 254.872C472.013 244.704 477.197 232.993 484.169 224.134C492.574 213.457 504.591 205.598 521.677 207.21C544.727 209.384 556.646 228.754 563.193 243.74C566.665 251.687 569.292 259.937 571.417 266.726L571.638 267.435C573.812 274.384 575.239 278.947 576.578 281.734C578.045 284.79 581.917 288.369 589.891 291.575C597.612 294.678 607.319 296.669 617.318 297.845C627.205 299.009 636.77 299.309 643.914 299.311C647.469 299.311 650.384 299.238 652.389 299.166C653.391 299.13 654.163 299.095 654.672 299.069C654.926 299.056 655.114 299.045 655.232 299.039L655.356 299.031L655.375 299.03L655.376 299.03C662.696 298.565 669.007 304.147 669.473 311.501C669.939 318.856 664.38 325.198 657.058 325.666L656.214 312.348C657.058 325.666 657.055 325.666 657.052 325.666L657.023 325.668L656.961 325.672C656.909 325.675 656.84 325.679 656.752 325.684C656.576 325.694 656.329 325.708 656.013 325.724C655.383 325.756 654.48 325.797 653.34 325.838C651.061 325.92 647.824 326.001 643.908 326C636.111 325.998 625.455 325.674 614.227 324.353C603.113 323.046 590.812 320.692 580.018 316.353C569.477 312.116 558.325 305.154 552.646 293.331C550.42 288.694 548.426 282.294 546.608 276.458C546.426 275.875 546.246 275.298 546.068 274.728C543.932 267.899 541.683 260.924 538.862 254.464C532.822 240.638 526.485 234.47 519.193 233.782C513.217 233.219 509.317 235.219 505.012 240.688C500.221 246.774 496.377 255.417 491.383 266.643C491.092 267.299 490.796 267.963 490.497 268.636Z" fill="black"/>
<path d="M455.738 91.5021C439.092 74.8733 416.724 65 391.756 65C366.787 65 343.899 75.393 327.774 91.5021C311.128 108.131 301.244 130.476 301.244 155.419C301.244 162.694 307.487 168.93 314.769 168.93C322.052 168.93 328.294 162.694 328.294 155.419C328.294 137.751 335.576 121.642 347.02 110.209C358.464 98.7771 374.59 91.5021 392.276 91.5021C409.962 91.5021 426.087 98.7771 437.531 110.209C448.975 121.642 456.258 137.751 456.258 155.419C456.258 173.087 448.975 189.196 437.531 200.628C426.087 212.06 409.962 219.335 392.276 219.335C391.756 219.335 391.235 219.335 391.235 219.335H128.025C120.742 219.335 114.5 225.052 114.5 232.846C114.5 240.641 119.702 245.838 127.504 245.838H390.715C391.235 245.838 391.235 245.838 391.756 245.838C416.724 245.838 439.612 235.445 455.738 219.335C472.383 202.707 482.267 180.362 482.267 155.419C482.267 130.476 471.863 107.611 455.738 91.5021Z" fill="#009DCF"/>
<path d="M545.917 385.985C532.392 372.474 514.186 364.68 493.899 364.68C493.379 364.68 492.858 364.68 492.858 364.68H288.428C281.145 364.68 274.903 370.396 274.903 378.191C274.903 384.946 281.145 391.182 288.428 391.182H492.858C493.379 391.182 493.379 391.182 493.899 391.182C506.903 391.182 518.347 396.378 527.19 404.693C535.513 413.007 540.715 424.959 540.715 437.95C540.715 450.941 535.513 462.374 527.19 471.208C518.867 479.522 506.903 484.718 493.899 484.718C480.894 484.718 469.45 479.522 460.607 471.208C452.284 462.893 447.083 450.941 447.083 437.95C447.083 430.675 440.841 424.439 433.558 424.439C426.276 424.439 420.554 430.675 420.554 437.95C420.554 458.216 428.876 476.404 441.881 489.915C455.406 503.426 473.612 511.22 493.899 511.22C514.186 511.22 532.392 502.906 545.917 489.915C559.441 476.404 567.244 458.216 567.244 437.95C567.244 417.684 558.921 399.496 545.917 385.985Z" fill="#009DCF"/>
<path fill-rule="evenodd" clip-rule="evenodd" d="M102.939 377.98C102.939 370.635 108.894 364.68 116.239 364.68H236.239C243.585 364.68 249.539 370.635 249.539 377.98C249.539 385.326 243.585 391.28 236.239 391.28H116.239C108.894 391.28 102.939 385.326 102.939 377.98Z" fill="#009DCF"/>
<path d="M76.16 696H30.66L21.98 717H-1.26L42.42 619H64.82L108.64 717H84.84L76.16 696ZM69.02 678.78L53.48 641.26L37.94 678.78H69.02ZM117.268 641.68H139.108V717H117.268V641.68ZM128.188 631.18C124.174 631.18 120.908 630.013 118.388 627.68C115.868 625.347 114.608 622.453 114.608 619C114.608 615.547 115.868 612.653 118.388 610.32C120.908 607.987 124.174 606.82 128.188 606.82C132.201 606.82 135.468 607.94 137.988 610.18C140.508 612.42 141.768 615.22 141.768 618.58C141.768 622.22 140.508 625.253 137.988 627.68C135.468 630.013 132.201 631.18 128.188 631.18ZM180.237 651.62C182.85 647.98 186.35 645.227 190.737 643.36C195.217 641.493 200.35 640.56 206.137 640.56V660.72C203.71 660.533 202.077 660.44 201.237 660.44C194.984 660.44 190.084 662.213 186.537 665.76C182.99 669.213 181.217 674.44 181.217 681.44V717H159.377V641.68H180.237V651.62ZM220.253 619H264.773C275.413 619 284.793 621.053 292.913 625.16C301.126 629.173 307.473 634.867 311.953 642.24C316.526 649.613 318.813 658.2 318.813 668C318.813 677.8 316.526 686.387 311.953 693.76C307.473 701.133 301.126 706.873 292.913 710.98C284.793 714.993 275.413 717 264.773 717H220.253V619ZM263.653 698.38C273.453 698.38 281.246 695.673 287.033 690.26C292.913 684.753 295.853 677.333 295.853 668C295.853 658.667 292.913 651.293 287.033 645.88C281.246 640.373 273.453 637.62 263.653 637.62H242.933V698.38H263.653ZM364.757 640.56C376.424 640.56 385.384 643.36 391.637 648.96C397.89 654.467 401.017 662.82 401.017 674.02V717H380.577V707.62C376.47 714.62 368.817 718.12 357.617 718.12C351.83 718.12 346.79 717.14 342.497 715.18C338.297 713.22 335.077 710.513 332.837 707.06C330.597 703.607 329.477 699.687 329.477 695.3C329.477 688.3 332.09 682.793 337.317 678.78C342.637 674.767 350.804 672.76 361.817 672.76H379.177C379.177 668 377.73 664.36 374.837 661.84C371.944 659.227 367.604 657.92 361.817 657.92C357.804 657.92 353.837 658.573 349.917 659.88C346.09 661.093 342.824 662.773 340.117 664.92L332.277 649.66C336.384 646.767 341.284 644.527 346.977 642.94C352.764 641.353 358.69 640.56 364.757 640.56ZM363.077 703.42C366.81 703.42 370.124 702.58 373.017 700.9C375.91 699.127 377.964 696.56 379.177 693.2V685.5H364.197C355.237 685.5 350.757 688.44 350.757 694.32C350.757 697.12 351.83 699.36 353.977 701.04C356.217 702.627 359.25 703.42 363.077 703.42ZM469.363 713.36C467.216 714.947 464.556 716.16 461.383 717C458.303 717.747 455.036 718.12 451.583 718.12C442.623 718.12 435.67 715.833 430.723 711.26C425.87 706.687 423.443 699.967 423.443 691.1V660.16H411.823V643.36H423.443V625.02H445.283V643.36H464.043V660.16H445.283V690.82C445.283 693.993 446.076 696.467 447.663 698.24C449.343 699.92 451.676 700.76 454.663 700.76C458.116 700.76 461.056 699.827 463.483 697.96L469.363 713.36ZM512.003 640.56C523.67 640.56 532.63 643.36 538.883 648.96C545.136 654.467 548.263 662.82 548.263 674.02V717H527.823V707.62C523.716 714.62 516.063 718.12 504.863 718.12C499.076 718.12 494.036 717.14 489.743 715.18C485.543 713.22 482.323 710.513 480.083 707.06C477.843 703.607 476.723 699.687 476.723 695.3C476.723 688.3 479.336 682.793 484.563 678.78C489.883 674.767 498.05 672.76 509.063 672.76H526.423C526.423 668 524.976 664.36 522.083 661.84C519.19 659.227 514.85 657.92 509.063 657.92C505.05 657.92 501.083 658.573 497.163 659.88C493.336 661.093 490.07 662.773 487.363 664.92L479.523 649.66C483.63 646.767 488.53 644.527 494.223 642.94C500.01 641.353 505.936 640.56 512.003 640.56ZM510.323 703.42C514.056 703.42 517.37 702.58 520.263 700.9C523.156 699.127 525.21 696.56 526.423 693.2V685.5H511.443C502.483 685.5 498.003 688.44 498.003 694.32C498.003 697.12 499.076 699.36 501.223 701.04C503.463 702.627 506.496 703.42 510.323 703.42ZM576.289 718.12C572.463 718.12 569.243 716.813 566.629 714.2C564.016 711.587 562.709 708.32 562.709 704.4C562.709 700.387 564.016 697.167 566.629 694.74C569.243 692.22 572.463 690.96 576.289 690.96C580.116 690.96 583.336 692.22 585.949 694.74C588.563 697.167 589.869 700.387 589.869 704.4C589.869 708.32 588.563 711.587 585.949 714.2C583.336 716.813 580.116 718.12 576.289 718.12ZM637.01 687.46L626.51 697.82V717H604.67V613.12H626.51V671.92L658.43 641.68H684.47L653.11 673.6L687.27 717H660.81L637.01 687.46ZM757.334 700.2V717H690.134V703.84L728.494 658.48H691.114V641.68H756.074V654.84L717.714 700.2H757.334Z" fill="black"/>
</g>
<defs>
<clipPath id="clip0">
<rect width="762" height="752" fill="white"/>
</clipPath>
</defs>
</svg>
