<svg width="1181" height="291" viewBox="0 0 1181 291" fill="none" xmlns="http://www.w3.org/2000/svg">
<path d="M509.64 81.84C521.28 81.84 531.42 84.12 540.06 88.68C548.7 93.24 555.42 99.96 560.22 108.84C565.02 117.72 567.42 128.46 567.42 141.06V210H538.26V179.76H480.66V210H451.86V141.06C451.86 128.46 454.26 117.72 459.06 108.84C463.86 99.96 470.58 93.24 479.22 88.68C487.86 84.12 498 81.84 509.64 81.84ZM538.26 156.36V138.36C538.26 127.92 535.68 120.06 530.52 114.78C525.36 109.38 518.34 106.68 509.46 106.68C500.46 106.68 493.38 109.38 488.22 114.78C483.18 120.06 480.66 127.92 480.66 138.36V156.36H538.26ZM594.222 113.16H622.302V210H594.222V113.16ZM608.262 99.66C603.102 99.66 598.902 98.16 595.662 95.16C592.422 92.16 590.802 88.44 590.802 84C590.802 79.56 592.422 75.84 595.662 72.84C598.902 69.84 603.102 68.34 608.262 68.34C613.422 68.34 617.622 69.78 620.862 72.66C624.102 75.54 625.722 79.14 625.722 83.46C625.722 88.14 624.102 92.04 620.862 95.16C617.622 98.16 613.422 99.66 608.262 99.66ZM675.182 125.94C678.542 121.26 683.042 117.72 688.682 115.32C694.442 112.92 701.042 111.72 708.482 111.72V137.64C705.362 137.4 703.262 137.28 702.182 137.28C694.142 137.28 687.842 139.56 683.282 144.12C678.722 148.56 676.442 155.28 676.442 164.28V210H648.362V113.16H675.182V125.94ZM726.631 84H783.871C797.551 84 809.611 86.64 820.051 91.92C830.611 97.08 838.771 104.4 844.531 113.88C850.411 123.36 853.351 134.4 853.351 147C853.351 159.6 850.411 170.64 844.531 180.12C838.771 189.6 830.611 196.98 820.051 202.26C809.611 207.42 797.551 210 783.871 210H726.631V84ZM782.431 186.06C795.031 186.06 805.051 182.58 812.491 175.62C820.051 168.54 823.831 159 823.831 147C823.831 135 820.051 125.52 812.491 118.56C805.051 111.48 795.031 107.94 782.431 107.94H755.791V186.06H782.431ZM971.642 113.16V210H944.822V198.84C937.862 207.24 927.782 211.44 914.582 211.44C905.462 211.44 897.182 209.4 889.742 205.32C882.422 201.24 876.662 195.42 872.462 187.86C868.262 180.3 866.162 171.54 866.162 161.58C866.162 151.62 868.262 142.86 872.462 135.3C876.662 127.74 882.422 121.92 889.742 117.84C897.182 113.76 905.462 111.72 914.582 111.72C926.942 111.72 936.602 115.62 943.562 123.42V113.16H971.642ZM919.442 188.4C926.522 188.4 932.402 186 937.082 181.2C941.762 176.28 944.102 169.74 944.102 161.58C944.102 153.42 941.762 146.94 937.082 142.14C932.402 137.22 926.522 134.76 919.442 134.76C912.242 134.76 906.302 137.22 901.622 142.14C896.942 146.94 894.602 153.42 894.602 161.58C894.602 169.74 896.942 176.28 901.622 181.2C906.302 186 912.242 188.4 919.442 188.4ZM1055.96 205.32C1053.2 207.36 1049.78 208.92 1045.7 210C1041.74 210.96 1037.6 211.44 1033.28 211.44C1021.64 211.44 1012.7 208.5 1006.46 202.62C1000.22 196.74 997.1 188.1 997.1 176.7V91.74H1025.18V115.32H1049.12V136.92H1025.18V176.34C1025.18 180.42 1026.2 183.6 1028.24 185.88C1030.28 188.04 1033.22 189.12 1037.06 189.12C1041.38 189.12 1045.22 187.92 1048.58 185.52L1055.96 205.32ZM1167.11 113.16V210H1140.29V198.84C1133.33 207.24 1123.25 211.44 1110.05 211.44C1100.93 211.44 1092.65 209.4 1085.21 205.32C1077.89 201.24 1072.13 195.42 1067.93 187.86C1063.73 180.3 1061.63 171.54 1061.63 161.58C1061.63 151.62 1063.73 142.86 1067.93 135.3C1072.13 127.74 1077.89 121.92 1085.21 117.84C1092.65 113.76 1100.93 111.72 1110.05 111.72C1122.41 111.72 1132.07 115.62 1139.03 123.42V113.16H1167.11ZM1114.91 188.4C1121.99 188.4 1127.87 186 1132.55 181.2C1137.23 176.28 1139.57 169.74 1139.57 161.58C1139.57 153.42 1137.23 146.94 1132.55 142.14C1127.87 137.22 1121.99 134.76 1114.91 134.76C1107.71 134.76 1101.77 137.22 1097.09 142.14C1092.41 146.94 1090.07 153.42 1090.07 161.58C1090.07 169.74 1092.41 176.28 1097.09 181.2C1101.77 186 1107.71 188.4 1114.91 188.4Z" fill="black"/>
<path d="M229.376 17.6192C218.587 6.83055 204.089 0.424805 187.905 0.424805C171.721 0.424805 156.886 7.1677 146.434 17.6192C135.645 28.4078 129.238 42.905 129.238 59.088C129.238 63.808 133.284 67.8537 138.005 67.8537C142.725 67.8537 146.771 63.808 146.771 59.088C146.771 47.6251 151.491 37.1736 158.909 29.7564C166.326 22.3392 176.779 17.6192 188.242 17.6192C199.706 17.6192 210.158 22.3392 217.576 29.7564C224.993 37.1736 229.713 47.6251 229.713 59.088C229.713 70.5509 224.993 81.0024 217.576 88.4196C210.158 95.8367 199.706 100.557 188.242 100.557C187.905 100.557 187.568 100.557 187.568 100.557H16.9626C12.2423 100.557 8.19629 104.265 8.19629 109.323C8.19629 114.38 11.5679 117.751 16.6254 117.751H187.231C187.568 117.751 187.568 117.751 187.905 117.751C204.089 117.751 218.924 111.008 229.376 100.557C240.166 89.7681 246.572 75.2709 246.572 59.088C246.572 42.905 239.828 28.0707 229.376 17.6192Z" fill="#009DCF"/>
<path d="M287.828 208.678C279.061 199.913 267.261 194.855 254.111 194.855C253.774 194.855 253.437 194.855 253.437 194.855H120.931C116.211 194.855 112.165 198.564 112.165 203.621C112.165 208.004 116.211 212.05 120.931 212.05H253.437C253.774 212.05 253.774 212.05 254.111 212.05C262.54 212.05 269.958 215.421 275.69 220.816C281.084 226.21 284.456 233.964 284.456 242.393C284.456 250.821 281.084 258.239 275.69 263.97C270.295 269.364 262.54 272.736 254.111 272.736C245.682 272.736 238.265 269.364 232.533 263.97C227.138 258.576 223.766 250.821 223.766 242.393C223.766 237.673 219.721 233.627 215 233.627C210.28 233.627 206.571 237.673 206.571 242.393C206.571 255.541 211.966 267.342 220.395 276.107C229.161 284.873 240.962 289.93 254.111 289.93C267.261 289.93 279.061 284.536 287.828 276.107C296.594 267.342 301.651 255.541 301.651 242.393C301.651 229.244 296.257 217.444 287.828 208.678Z" fill="#009DCF"/>
<path fill-rule="evenodd" clip-rule="evenodd" d="M0.703125 203.484C0.703125 198.719 4.56273 194.855 9.32378 194.855H87.1042C91.8652 194.855 95.7248 198.719 95.7248 203.484C95.7248 208.25 91.8652 212.113 87.1042 212.113H9.32378C4.56273 212.113 0.703125 208.25 0.703125 203.484Z" fill="#009DCF"/>
<path fill-rule="evenodd" clip-rule="evenodd" d="M251.906 132.543C245.615 146.68 236.229 167.722 211.728 169.537C203.356 170.158 196.87 169.418 191.549 167.47C186.092 165.473 182.579 162.46 179.96 159.878C179.119 159.049 178.456 158.372 177.898 157.802C176.546 156.42 175.812 155.67 174.663 154.932C173.598 154.248 171.883 153.461 168.144 153.461C164.175 153.461 162.359 154.214 161.357 154.8C160.166 155.497 159.363 156.335 157.498 158.278C157.318 158.465 157.128 158.663 156.927 158.872C154.791 161.093 151.799 164.044 147.096 166.24C142.433 168.417 136.753 169.561 129.404 169.561H23.2889C18.5331 169.561 14.6777 165.685 14.6777 160.903C14.6777 156.121 18.5331 152.245 23.2889 152.245H129.404C134.989 152.245 138.04 151.376 139.842 150.535C141.604 149.712 142.812 148.638 144.548 146.834C144.727 146.648 144.92 146.444 145.127 146.225C146.759 144.497 149.274 141.837 152.691 139.837C156.845 137.404 161.796 136.145 168.144 136.145C174.722 136.145 179.744 137.65 183.929 140.336C186.898 142.242 189.426 144.851 191.063 146.541C191.426 146.916 191.745 147.246 192.016 147.512C193.765 149.236 195.226 150.388 197.441 151.199C199.792 152.06 203.675 152.771 210.462 152.268C223.438 151.307 229.211 141.142 236.185 125.471C236.456 124.862 236.73 124.242 237.008 123.613C239.925 117.016 243.285 109.418 247.805 103.67C253.252 96.7433 261.041 91.6444 272.116 92.6899C287.056 94.1004 294.782 106.668 299.025 116.391C301.276 121.547 302.979 126.899 304.356 131.304L304.499 131.764C305.908 136.272 306.833 139.233 307.701 141.041C308.652 143.023 311.161 145.346 316.33 147.425C321.335 149.439 327.627 150.73 334.108 151.494C340.516 152.248 346.715 152.443 351.346 152.444C353.65 152.445 355.54 152.397 356.839 152.351C357.489 152.327 357.989 152.304 358.319 152.287C358.484 152.279 358.606 152.272 358.682 152.268L358.762 152.263L358.775 152.262L358.775 152.262C363.52 151.961 367.611 155.582 367.913 160.353C368.215 165.125 364.612 169.24 359.866 169.543L359.319 160.903C359.866 169.543 359.864 169.543 359.862 169.544L359.843 169.545L359.803 169.547C359.769 169.549 359.724 169.552 359.667 169.555C359.554 169.562 359.393 169.571 359.189 169.581C358.78 169.602 358.195 169.629 357.456 169.655C355.979 169.709 353.881 169.761 351.343 169.76C346.288 169.759 339.381 169.549 332.104 168.692C324.9 167.844 316.927 166.317 309.931 163.502C303.098 160.752 295.87 156.236 292.189 148.565C290.746 145.556 289.454 141.404 288.275 137.617C288.158 137.239 288.041 136.865 287.926 136.495C286.541 132.065 285.083 127.539 283.254 123.348C279.34 114.378 275.232 110.376 270.506 109.93C266.632 109.564 264.105 110.862 261.314 114.41C258.209 118.359 255.717 123.967 252.481 131.25C252.292 131.675 252.1 132.106 251.906 132.543Z" fill="black"/>
</svg>
