<svg height="98" viewBox="0 0 114 98" width="114" xmlns="http://www.w3.org/2000/svg"><g fill="none"><g fill="#184897" transform="translate(.109835 1.546875)"><path d="m7.18812102 50.466085c2.12805776 0 4.25678328.0083466 6.38550868-.0093483.4103206-.0026709.5862676.0831325.6276669.5311798.064436.6456956.2744373 1.2800398.3255187 1.9257354.0383945.5732468.2884597.6129768.7702274.5525471 2.1921599-.2624181 4.3923326-.4730872 6.585494-.7458552.5702421-.0701117.6734065.1272027.6607196.6283346-.0186965.7014511-.215677 1.3701834-.2994772 2.057946-.062099.4937869.146233.6009577.5675711.5048045.1822904-.0427348.3602407-.0994919.5445343-.1492379.7745677-.2103351.9842351-.0711133 1.1341406.7047898.0784584.406648-.0263753.6470311-.4433731.8299893-3.6441404 1.571838-7.2619053 3.2081121-10.8372694 4.9318589-2.9310039 1.4119166-5.84364521 2.8672357-8.757622 4.3242241-.35857139.1776163-.50346895.1532442-.66405818-.2423863-1.97948767-4.8700938-3.20510738-9.9111268-3.54765323-15.1631626-.034722-.5101463.02270284-.7154735.62933619-.6997818 2.10602263.0450718 4.212713.0183626 6.31873564.0183626"/><path d="m42.3444764.39496271c.3692551-.07345038.639686.06009576.696777.7458552.1806212 2.13707211.4386991 4.26947012.7081284 6.39585854.0610974.49545618-.1428943.61097359-.5438666.68375624-1.0313101.18329208-2.0899971.21734634-3.1099558.49545618-.5992883.16426176-.9231377.4500505-.7632162 1.10976843.1328784.5445344-.1195238.7919286-.644694.9187974-.815633.1939758-1.6285952.4270138-2.4178528.7024528-.4400346.151241-.6951077.1058353-.8556969-.3602408-.3235156-.9311504-.6850917-1.84761082-1.0002606-2.78143221-.1372187-.40397708-.3338654-.55388262-.7321668-.33753787-.0343881.01669327-.0814631.01502394-.1218608.02871242-1.3160972.42834925-1.3444758.48210157-.8303231 1.77315888.8046155 2.02990138 1.589199 4.06915088 2.4265333 6.08402828.2276962.5438667.0717811.8266506-.3889531 1.0516759-.1495717.0737842-.3048191.141225-.463739.1969805-.5408618.1879662-.7047897.5214977-.4774274 1.0700385.2333719.5705759.0894759.9735514-.5124833 1.2656835-.82832.4013062-1.6239211.8817384-2.4215254 1.3494838-.2567425.1495717-.3986353.1699375-.5812596-.1185222-2.670589-4.1836667-5.3445166-8.3616577-8.0404793-12.52796346-.2557408-.3979675-.0046741-.51715743.2253591-.68876422 1.5614883-1.16452235 3.2899092-2.02589496 5.0627342-2.80413509 4.1863377-1.8375949 8.4831848-3.32963916 13.0100651-4.07148797.5191606-.08680499 1.0480033-.10850624 1.7761636-.18162275"/><path d="m48.3330192 89.2635759c0-2.7714163.0093483-4.8357057-.0093482-6.8986598-.0060096-.4851063.168602-.7118009.6577148-.6607195.6330087.0641022.785919-.2527361.7518647-.8353311-.0814631-1.3344598-.1185222-1.1932348 1.0914059-1.3668447.4360281-.0614313.8867463-.0574249 1.3144279-.1572506.6276668-.1495717.8964284.1201915.9869059.6934383.0243722.1665988.0637683.3305267.0934823.4971255.1358832.7585421.2170125.8436778.944839.6290023.473421-.1415589.644694 0 .7224846.444041.047075.2894612.2009869.5675711.21334.8543614.0300478.7391779.5074753.8747272 1.1030911.8810707.5869353.007345 1.1772092.024706 1.7674832.0133546.4720856-.0066773.7248216.1986499.8620403.6540422.245391.7996075.3131657.8173024 1.1271294.5799241.6643921-.1996515 1.3311212-.3919579 1.9931762-.5966174.2704309-.0844679.4273476-.0861372.5605599.2524022.991914 2.5203496 2.0028582 5.0356911 3.034836 7.5380119.1709391.4096528-.0403977.523167-.3084915.6730726-1.4039038.7899254-2.9466956 1.2216133-4.4894874 1.6225856-3.4251247.8934237-6.8893116 1.5878636-10.4369648 1.7023794-2.0021905.0631006-1.6459562.248062-1.7618075-1.5511384-.118856-1.8886763-.1689358-3.7826944-.2186818-4.9682503"/><path d="m57.0499097.96887725c2.47461.46774536 4.8637505 1.11878279 7.2011418 1.96145894 3.555666 1.28504774 6.8969904 2.99276902 10.0603646 5.05906168.3338654.21500928.3899548.36791961.1475685.70979774-1.2767011 1.85362039-2.5383783 3.71859229-3.778688 5.59858809-.2170125.3205107-.404311.3278558-.7151396.1916387-.915125-.3912902-1.693699-1.0162861-2.56876-1.4766865-.8122944-.426346-.8122944-.4296847-1.2396421.3719261-.6413553 1.2072571-1.2880525 2.4105078-1.9150516 3.6237745-.1442299.2871242-.2650891.3402088-.5672373.1923064-1.9678024-.9605306-3.9800088-1.8108856-6.0830267-2.4292043-.243054-.069444-.354565-.1969805-.2764405-.4547246.0116853-.0403977.0180287-.0827986.0300479-.1221947.4901143-1.7698202.4714179-1.4326162-1.2369711-1.9103775-.1014951-.0270431-.205995-.032385-.3118303-.0540862-1.0503404-.2126723-1.0556822-.2146755-.8867464-1.3107554.4917837-3.20343806 1.1812157-6.36714613 1.7985327-9.54454268.0303817-.17027133-.0343881-.53318297.3418781-.40598027"/><path d="m77.1402573 85.8321078c-.1121788.086805-.2120045.1645956-.3084916.2403831-2.7236736 2.1487574-5.6580161 3.9396111-8.8591171 5.2914319-.4006385.1719407-.557889.0841341-.7388441-.3138334-2.767076-6.1968748-5.5485082-12.38774-8.3496385-18.5675877-.1749455-.384279-.0697779-.5872691.2100013-.7775724.4183332-.280113.5325152-.5859337.2143415-1.041326-.2550731-.3528957-.1495717-.6473649.2577441-.8663806.5952819-.3134996 1.1808817-.649702 1.7424432-1.0229634.3362024-.2200173.515822-.1642618.7528664.1448975.5448683.7027866.5655679.6987802 1.3144279.1933081.4650744-.3108287.7702274-.2807808 1.1444904.2110029 4.071488 5.345852 8.1643433 10.6713382 12.2541939 16.0021663.1151835.1492378.220685.3064884.3655826.5064737"/><path d="m5.59625103 48.8204627c-1.70304716 0-3.41243776-.002671-5.11648652.0036725-.29780789 0-.5001303.0180287-.47809518-.4146608.24639263-5.2279975.81162667-10.4035782 2.52268659-15.390525.19397577-.5655679.37693399-.6683984.95986289-.4600664 3.10494777 1.1064297 6.22592108 2.1701248 9.35223619 3.2191297.4360282.1485701.5502101.3255187.4133253.7615469-.2917983.9201329-.5368554 1.856959-.820641 2.7817661-.1792857.5802579-.0794599.981898.5962835 1.0797205.5705759.0848018.7695597.3218462.6510375.9638693-.2724342 1.487704-.458731 2.9944383-.6310055 4.4968324-.0594281.5004642-.3849468.5004642-.7087962.5261718-.8960946.0691101-.9288134.0934823-.8977639.9949188.0016693.0213673.0030048.0413993.0030048.0600957.0353897 1.0833931.0353897 1.1254601-1.046334 1.1521693-1.59854735.0420671-3.19909784.0120192-4.79630969.0120192-.00300478.0701117-.00300478.141225-.00300478.21334"/><path d="m46.863344 84.2732905c-.1051676 3.5787027-.1051676 7.1574054-.0771229 10.7367758.0063434.505806-.1692698.6466972-.6163155.6790822-1.3124247.0994918-2.6074884-.0540862-3.9022182-.2049934-2.0462607-.2390476-4.0768298-.5739145-6.0616593-1.1685287-.587603-.1776164-.8463487-.4270138-.6683985-1.1091007.6817531-2.6422104 1.3872106-5.2787451 2.2542589-7.8668693.1639279-.4987948.3872838-.5709097.8543614-.4500505 1.4796913.3949627 1.5064005.3862822 1.8436045-1.1054281.3926257-1.7397724.7358392-3.4935671 1.1164457-5.2413522.161257-.7288281.3148351-.8543614 1.0396567-.6156477.6470311.2133399.8566985.0043402.9361585-.6069672.1692697-1.3317889.4003045-2.660573.547873-3.9977037.0654376-.5739146.3375379-.7528664.8566985-.701785h.0610974c1.9778183.1382202 1.9778183.1382202 1.9778183 2.1230498v9.5321896c-.0550878.0003339-.1071708-.0026709-.1622585-.0026709"/><path d="m26.535952 34.5433786c-.1432282.2864565-.2660907.5545504-.4069818.8129622-.4577294.8283199-.9041074 1.6740008-1.170532 2.5781082-.1856291.6249959-.3972997.7004495-.9925817.4747565-5.8503225-2.2175336-11.7160029-4.4030162-17.57734299-6.5981809-.88240613-.3305267-1.76748318-.6687323-2.6585698-.9822319-.33653627-.1181883-.39629817-.2530699-.24772809-.5929448 1.10075406-2.5033225 2.25158793-4.9752615 3.70523767-7.3006337.23771213-.3812742.38327743-.4013061.75320024-.1692697 6.05164337 3.806065 12.11964617 7.5957706 18.17462817 11.3918196.1569167.0988242.4169978.1348816.4206703.3856145"/><path d="m19.6412986 69.5918955c-1.1458258.865379-1.2767011 1.916721-.9588612 3.1176347.4697485 1.7724911.7171427 3.5546644.0103498 5.3274894-.1071708.2721002.0677746.3325299.2046594.4397007.4800984.3786033.9531856.7648855 1.4466386 1.1247923.3134996.2233559.3902886.3766001.0928146.7131364-1.0730433 1.214936-2.1207127 2.4509056-3.1476826 3.7055716-.2687616.3285235-.4149946.3155027-.7258232.0540861-4.0347628-3.4651884-7.33535568-7.5306668-9.98324178-12.1313314-.58760302-1.0169538-1.10409272-2.0793134-1.68134591-3.1022768-.19297418-.3418781-.1272027-.4834371.20031921-.6704017 1.3615029-.7545356 2.81181399-1.3217729 4.19869066-2.0192176.33186216-.1655972.52350087-.0013355.58426437.2413846.28011305 1.0904043.99725585 1.1641885 1.97281035 1.068703 1.1137748-.1111771 2.137406.3609085 3.0999398.9137895.6353458.3689212 1.2653497.7528664 1.8586284 1.1872252.4210042.3048191.8276522.3559005 1.3004056.1966467.4533891-.1532442.9144572-.2984756 1.5274339-.1669327"/><path d="m30.7286331 77.1272365c-.0827986.1418928-.1652633.2907967-.2483958.4343588-1.2429807 2.1013485-2.4639263 4.212713-3.7396258 6.2910248-.3048191.4974594-.1766148.7321668.2407169 1.0005945.8984317.5886046 1.0833931.5448683 1.5484675-.4169978.0530846-.1175206.0988241-.2350412.1589199-.3438813.413993-.7755692.5719114-.8269845 1.3351276-.4226736 1.7457819.9314844 3.6064135 1.5942071 5.4503518 2.2999984.399303.1529104.4874434.290129.3462184.7184783-.7118009 2.1534315-1.306749 4.3402496-2.0970083 6.4683073-.1014951.2807808-.1796195.4530553-.5592244.3108286-4.4157032-1.6750024-8.683504-3.6304518-12.6244506-6.2579721-.6663952-.4420377-1.2927266-.939831-1.8653057-1.5013925-.2457249-.2423862-.2600811-.4169978-.0430686-.6884303 2.6899531-3.402088 5.3748983-6.8091839 8.0464888-10.225628.2387137-.302482.3822758-.322514.6971109-.0978226.9872398.7164751 2.0098694 1.3882121 3.0121332 2.0859907.1275365.0904775.3084915.1422267.3415442.3452168"/><path d="m20.5343885 8.73458533c.1649294.02069965.218014.14723462.2877919.24872969 1.9631283 2.81214788 3.9192454 5.62997138 5.8910541 8.43677748.1812889.2564085.1128465.4013061-.0597619.5966173-.9121201 1.0172878-1.829916 2.0325723-2.7203349 3.0715613-.2357089.2761066-.3983013.1996515-.6269991.0390622-.3862822-.2687616-.6527068-.6540422-.9558565-1.0035992-.2968063-.3448829-.5555519-.3779356-.9518501-.0934823-1.5594851 1.1201182-3.007793 2.3734488-4.4026824 3.6862073-.3852806.3622439-.6593841.3435475-1.0196248.057091-.3301928-.2600811-.6710693-.5091447-1.0079395-.7618807-.2660907-.2016547-.4894466-.2130061-.7688919.0350558-.4173317.3669181-.7855852 1.0099427-1.301741.981898-.4714179-.0257076-.9191313-.5391925-1.3731882-.8426761-.9077799-.6103059-1.80554381-1.2339664-2.72434126-1.8292483-.31917527-.2110029-.40898505-.3559004-.15357806-.7168089 3.19575912-4.532556 6.99114042-8.4671592 11.53571562-11.66191673.1195238-.08647112.2440556-.16793427.352228-.24338784"/><path d="m48.4712395.00233706c2.0642895.02637536 4.1078793.32818964 6.1561432.55521808.3722599.04173317.4296847.21267223.3782695.53819094-.5652341 3.76700277-1.1287988 7.53467326-1.6780073 11.30367922-.0577587.3902886-.2233559.5178252-.6002899.5425312-.6490342.0430686-1.2970669.1352155-1.9444318.215677-.3889531.0467412-.6073011.2540715-.7071268.6663953-.3004788 1.2072571-.5548842 2.4208576-.7288281 3.6484805-.0614312.4206704-.2463926.6179848-.6146461.7742338-.7789079.3305267-1.6065601.4817677-2.4118433.7268248-.3048191.0924807-.3896209.0046742-.4109882-.3104947-.1529104-2.5206834-.3235156-5.0386959-.4921176-7.5607148-.2240236-3.40242179-.4393668-6.80584519-.6737403-10.20559606-.0330526-.42334127.0106837-.62566367.5138188-.68375625 1.0666998-.12019152 2.137406-.23070095 3.2137879-.21066903"/><path d="m80.4575434 27.8009678c-.2163448-.0190303-.2867904-.223022-.3879516-.3635793-.3408765-.4800984-.6747418-.8770643-1.2963991-.3535634-.208332.1702713-.4410361.0974886-.6009576-.126535-.6036286-.8142976-1.2012476-1.6282613-1.8172292-2.4295382-.1956451-.2574102-.0944838-.4433732.0931485-.5946142.5408618-.4280153.4503843-.8630419-.010016-1.2456516-.5295104-.4423716-.4420377-.8149653.0153578-1.2289583.7111332-.6510375 1.4022345-1.3314551 2.1327319-1.9661331.3625778-.312498.3315283-.5245025.0206996-.8590356-1.5948747-1.7164017-3.3593531-3.2468405-5.2126397-4.668773-.3559005-.2710987-.4380313-.4276815-.138888-.8176363.8850771-1.1494984 1.7330951-2.3310479 2.566423-3.51994238.2290316-.32351553.374263-.33319762.6890981-.09949188 4.7225254 3.52495036 8.6641397 7.77338696 11.8131577 12.76100146.1398896.220685.3665842.4003046-.0333865.6440263-2.5420508 1.5658285-5.0710809 3.1526905-7.6011125 4.7335429-.0724488.0454057-.1479023.0851357-.2320364.1348816"/><path d="m77.1789856 72.5138851c.3776017.1572506.6583825.3826097.9251409.6189863 1.2239504 1.0653644 1.2302938 1.0740449 2.3998242.0540862.2724341-.2413846.4810999-.3081577.8159669-.0754535 1.5461304 1.0566838 2.9824192 2.26127 4.485481 3.3740432.3185075.2357089.1739438.4103205.0353897.6216573-.8139637 1.2102619-1.7798362 2.2936549-2.7697469 3.3550129-1.2953976 1.3842058-2.6171705 2.7336895-4.1352563 3.8865266-.3659164.2744373-.5862675.290129-.9091153-.1098417-1.7741605-2.1901567-3.5823753-4.354272-5.3935948-6.5123776-.265423-.3168382-.3064884-.4831032.0417332-.7889238 1.4616625-1.2723609 2.8134833-2.6595714 4.1235709-4.0868458.1168529-.128872.21334-.3101609.3806065-.3368701"/></g><g fill="#4e4f50" transform="translate(47.85258 36.268872)"><path d="m8.74627062 8.08388176v-7.70728164h1.01762159v6.79115512h3.79604909v.91612652z"/><path d="m14.2189915 4.32656109c0-1.27569951.3468861-2.27863102 1.03131-3.00111564.6874288-.72281849 1.5725058-1.0850624 2.6599053-1.0850624.7131364 0 1.3524885.1706052 1.9233983.5098124.5735807.34087652 1.0079395.81396372 1.3057474 1.42159866.3011465.60696721.4507182 1.29639916.4507182 2.06562493 0 .78024333-.1582522 1.47935738-.4720856 2.09634055-.3168382.61731703-.7642178 1.08339306-1.3404694 1.39989742-.5789225.31683822-1.2039185.47575812-1.869646.47575812-.7278264 0-1.3751913-.17694863-1.9450995-.52550406-.57525-.34989089-1.0056024-.82731834-1.2980685-1.43328395-.2978079-.60730108-.4457102-1.24665323-.4457102-1.92406603zm1.053679.01969806c0 .92614248.2524022 1.65663987.7485261 2.19015671.4997965.53385069 1.1261279.79994138 1.8773249.79994138.7665549 0 1.4019006-.26876161 1.8976907-.80795415.4947884-.53819095.743852-1.30407807.743852-2.29298724 0-.6263314-.1071708-1.17353671-.319843-1.64061434-.2096675-.46674376-.5214977-.82831993-.929815-1.08606399-.4079835-.25640859-.8643774-.38528061-1.3748576-.38528061-.7194798 0-1.3411371.24739422-1.8639702.74351814-.5204961.49445458-.7789079 1.32043746-.7789079 2.4792841z"/><path d="m22.6086939 8.08388176v-7.70728164h2.8869337c.5872691 0 1.0593547.07979382 1.4129182.23270415.354565.15725058.6320071.39663203.8356649.71947983.1979822.32351553.3018143.66172113.3018143 1.01361521 0 .32885737-.0894759.63801669-.272768.92814568-.1786179.28912739-.4500505.52450246-.8126283.7024527.4697486.13721866.8323264.36992281 1.0853963.7004495.250399.3305267.3759324.72048143.3759324 1.16919647 0 .3632455-.0757874.69978177-.2286978 1.00894109-.1515748.3131657-.3388733.55087783-.5635647.72014756-.2253591.16926974-.5061399.29613857-.8440116.38227583-.3382056.08747272-.7501954.13054135-1.2403098.13054135h-2.9366796zm1.0219618-4.47947142h1.6566399c.4490489 0 .7742338-.02804469.969545-.08847432.257744-.07779063.4513859-.203324.5809257-.38194196.1312091-.17594704.1989837-.39830137.1989837-.66706298 0-.25473926-.061765-.47709358-.1839598-.67106935-.1225285-.19330804-.2978079-.32652032-.5251702-.39663204-.2246913-.07011172-.6126429-.10717078-1.1655239-.10717078h-1.5314404zm0 3.56367876h1.9170549c.3318621 0 .5615615-.01201915.6934383-.03672519.2373783-.0413993.4306863-.11151102.5906078-.21033517.1572506-.09682095.2867904-.24038305.3879516-.42734765.0998257-.18729846.1519087-.40431094.1519087-.65070357 0-.28578874-.0737842-.53552002-.2276962-.74752452-.1529103-.2120045-.3579036-.36057458-.6189863-.44637798-.2607489-.08647112-.6350119-.12853816-1.1227892-.12853816h-1.7718234v2.64755224z"/><path d="m28.7468084 8.08388176 2.9563777-7.70728164h1.1060959l3.1496857 7.70728164h-1.1598482l-.8920882-2.335722h-3.2371585l-.8420084 2.335722zm2.2125257-3.16504353h2.6275203l-.8079542-2.13773985c-.2487297-.64703105-.4300185-1.18288494-.5518794-1.60622621-.0998257.50213349-.2383799.99758967-.4149946 1.48603468z"/><path d="m36.4741219 8.08388176v-7.70728164h1.0199587v6.79115512h3.7923765v.91612652z"/><path d="m.32518485 16.0969841.96620633-.0834664c.04507182.3856145.15057327.7007834.31516889.9478438.16593108.2483958.42434286.4473795.77122897.5992883.35022475.1529103.74151494.2283639 1.17787696.2283639.38094036 0 .72515554-.0557555 1.02129411-.1732761.29547083-.1148497.51582197-.2737696.66305659-.473755.14289437-.2023224.21534315-.4216719.21534315-.6603856 0-.2393815-.069444-.4507183-.20966744-.6290024-.13721866-.180955-.36558256-.3305267-.68409011-.4523875-.20499333-.0814632-.66071953-.2053272-1.36417383-.3742631-.70612522-.170939-1.20024594-.3305267-1.48302989-.4817677-.36858735-.1946435-.64335853-.4333572-.82431355-.7201475-.17961956-.2857888-.27043094-.6059657-.27043094-.9605307 0-.3889531.11017557-.7538679.33019284-1.0927413.22068499-.3388733.54086187-.5956157.96320154-.7708951.42233967-.175947.89409141-.262752 1.41124884-.262752.57057588 0 1.07371097.0911453 1.5060666.2747712.43536042.1846275.7698935.4557262 1.00359925.8129621.23403961.357236.3622439.7615469.37760171 1.2139344l-.97655615.0737843c-.05275073-.4814338-.22769617-.8456809-.53251524-1.0920736-.29914336-.2463926-.74418587-.3699228-1.33345822-.3699228-.6156477 0-1.06002249.114182-1.34080325.3392072-.28078076.2250253-.42167194.4954562-.42167194.8146315 0 .2764405.09949188.5031351.29914336.6824207.1946435.1776164.70278656.3605746 1.52876944.5475392.82231036.1856292 1.39188465.3502248 1.69436666.4901144.45171982.2053272.7805772.4677453.99191396.7849174.21701248.3158366.32017688.6790821.32017688 1.091072 0 .4113221-.11518355.795935-.3488893 1.1565096-.2350412.3639132-.57090975.6446939-1.01094428.8463486-.43769748.200987-.92948114.3021482-1.48069284.3021482-.69310447 0-1.27536564-.1038322-1.74745125-.3048191-.46908082-.2026563-.83800203-.5098124-1.10609591-.9177959-.26742614-.4099866-.40798346-.8710547-.42167194-1.385875z"/><path d="m7.63583446 18.5769359v-7.703943h1.02096025v3.1533583h3.99436509v-3.1533583h1.0206264v7.703943h-1.0206264v-3.6364614h-3.99436509v3.6364614z"/><path d="m14.2827597 18.5769359 2.9580471-7.703943h1.1060959l3.1480164 7.703943h-1.1591805l-.8944253-2.3323833h-3.2354891l-.8420084 2.3323833zm2.2121919-3.1633742h2.6261848l-.8046155-2.1384076c-.250399-.647031-.4343588-1.1805479-.5518794-1.6035553-.0994919.5011319-.2403831.9955865-.4156624 1.4840315z"/><path d="m22.0514726 18.5769359v-7.703943h2.9052963c.5114817 0 .8994333.0240383 1.1718674.0737843.3766001.0627666.6951077.1829582.9485115.3589052.2570763.1776164.4617357.4256783.6189863.7435181.1555813.3195092.2347074.6704017.2347074 1.051342 0 .6540423-.2089997 1.2095942-.6269992 1.6636511-.4163301.4540569-1.1685287.6807514-2.2559282.6807514h-1.9744796v3.131657h-1.0219619zm1.0219619-4.0467819h1.9878343c.6560454 0 1.1237907-.1201916 1.4022344-.3649149.2771083-.2463926.4143269-.5889384.4143269-1.0326455 0-.3221801-.0824647-.594948-.245391-.8243135-.1632601-.2283639-.3755985-.3796049-.6413553-.4523876-.1739439-.0464073-.4891128-.069444-.9528517-.069444h-1.9651315v2.7437055z"/><path d="m29.0045524 18.5769359v-7.703943h5.5718789v.9134556h-4.5519202v2.3454041h4.2564494v.9141233h-4.2564494v2.6175044h4.7315397v.9134556z"/><path d="m43.1073588 16.0969841.9665401-.0834664c.0437364.3856145.1529104.7007834.3158367.9478438.1652633.2483958.4223396.4473795.7712289.5992883.3485555.1529103.7428504.2283639 1.1745383.2283639.3879516 0 .7304974-.0557555 1.0229635-.1732761.2971401-.1148497.5178251-.2737696.6610534-.473755.1452314-.2023224.2190156-.4216719.2190156-.6603856 0-.2393815-.0714471-.4507183-.2089997-.6290024-.1372186-.180955-.3649148-.3305267-.6864271-.4523875-.2036579-.0814632-.6610534-.2053272-1.3641739-.3742631-.7047897-.170939-1.1965734-.3305267-1.4820282-.4817677-.3672519-.1946435-.6426909-.4333572-.8223104-.7201475-.1826244-.2857888-.2707648-.6059657-.2707648-.9605307 0-.3889531.1078385-.7538679.327188-1.0927413.220685-.3388733.5418635-.5956157.9632016-.7708951.4256783-.175947.8957607-.262752 1.4122504-.262752.5709098 0 1.0720417.0911453 1.5047312.2747712.4380313.1846275.7725644.4557262 1.0056024.8129621.2340396.357236.3605746.7615469.3755985 1.2139344l-.9775577.0737843c-.049746-.4814338-.2266946-.8456809-.5291766-1.0920736-.2991434-.2463926-.7445198-.3699228-1.336463-.3699228-.6129768 0-1.0593548.114182-1.3391339.3392072-.2794453.2250253-.4210043.4954562-.4210043.8146315 0 .2764405.0998258.5031351.2991434.6824207.1926403.1776164.704122.3605746 1.5264324.5475392.8263167.1856292 1.3902153.3502248 1.6987069.4901144.4480473.2053272.7765708.4677453.9912462.7849174.2150093.3158366.3201769.6790821.3201769 1.091072 0 .4113221-.1168529.795935-.3505586 1.1565096-.2340396.3639132-.5722452.6446939-1.009275.8463486-.4390329.200987-.9314843.3021482-1.4806928.3021482-.6954415 0-1.2800398-.1038322-1.7477851-.3048191-.4700824-.2026563-.8390037-.5098124-1.1074314-.9177959-.2664246-.4099866-.4069819-.8710547-.4216719-1.385875z"/><path d="m6.15814641 26.3683516 1.02262958.2567425c-.21634475.838002-.59928831 1.4746832-1.15650958 1.9150516-.55521808.4400346-1.23162929.6593841-2.03591092.6593841-.83032313 0-1.50539887-.1692697-2.02522722-.5064737-.52116382-.3365363-.91779585-.8276522-1.18922838-1.4710108-.2717664-.6376828-.40798346-1.3277825-.40798346-2.0642894 0-.7996076.15391192-1.5017264.46040032-2.0990115.30648839-.5992883.74418586-1.0516759 1.30708285-1.3615029.5655679-.3108287 1.18956225-.4644067 1.8703137-.4644067.7688919 0 1.41525522.1956451 1.94142702.5869353.52283314.3929595.89108662.9458405 1.09641381 1.6566398l-1.00927495.2370444c-.18062116-.5598922-.43669588-.9692111-.77456762-1.2259535-.33987493-.2550732-.76588712-.3846129-1.27970589-.3846129-.58994008 0-1.08673172.1408912-1.48169443.4256783-.39596431.2867903-.67641121.667063-.83599885 1.1434888-.16259242.4800984-.24238624.9738853-.24238624 1.4810267 0 .6563793.09515162 1.2259536.28645647 1.7157341.19063712.4904482.48744341.8543614.89108662 1.0957461.40431095.2420523.84067296.36191 1.31008764.36191.56823883 0 1.05367905-.1632602 1.4483079-.4941207.39763363-.3295251.66439205-.8166347.80428163-1.4639996z"/><path d="m7.88389642 25.3183451c0-1.277035.34221198-2.2772956 1.02997461-3.0037866.68609329-.7228185 1.57283967-1.0813899 2.65790207-1.0813899.7107993 0 1.3554933.1689359 1.9247337.5078092.5719114.3385395 1.0056025.8139638 1.306749 1.4189278.2988095.6079688.4473796 1.3004055.4473796 2.0686297 0 .7805772-.1559151 1.4773542-.4717517 2.0966744-.3131657.6156477-.7602114 1.0813899-1.3398017 1.3998974-.5775871.3178398-1.2029169.473755-1.8729846.473755-.7228185 0-1.3715189-.1749455-1.94343023-.5261718-.57090975-.3485555-1.00393311-.825649-1.29840235-1.4336178-.29480311-.6022931-.4403684-1.2449839-.4403684-1.9207274zm1.0493388.0180287c0 .9281457.24939741 1.6569738.74852612 2.1904906.49979646.53552 1.12913266.8006091 1.88099736.8006091.7668887 0 1.3992297-.2684277 1.8940182-.8069526.4951223-.5391925.7425165-1.3037442.7425165-2.2946565 0-.6259976-.1038321-1.1725351-.314835-1.6406144-.2130061-.4644067-.5228332-.8293215-.9314843-1.0850623-.4099867-.2557409-.8660468-.3846129-1.3751914-.3846129-.7208153 0-1.3424726.2463926-1.86163323.7428504-.52149768.4951223-.78291425 1.3201036-.78291425 2.4779486z"/><path d="m16.2715956 29.0736626v-7.7049446h1.5334436l1.8339224 5.4553598c.1672665.5091447.2904628.8897512.3692551 1.1411518.0881404-.2807808.2253591-.6911013.4123237-1.2363034l1.8602977-5.3605421h1.3691818v7.7049446h-.9872398v-6.4446029l-2.251588 6.4446029h-.9177958l-2.2362301-6.5597864v6.5597864h-.9855706z"/><path d="m24.9918248 29.0736626v-7.7049446h1.5334435l1.8319192 5.4553598c.1692697.5091447.2927999.8897512.3699228 1.1411518.0904775-.2807808.2266946-.6911013.4136592-1.2363034l1.8589623-5.3605421h1.3701834v7.7049446h-.9889092v-6.4446029l-2.2499186 6.4446029h-.9177959l-2.2342269-6.5597864v6.5597864h-.9872398z"/><path d="m38.807173 21.3683841h1.0202925v4.4497574c0 .7732322-.0878065 1.3878783-.2630859 1.842269-.1756131.453723-.488445.8269845-.9475098 1.1087669-.4583972.2887935-1.0530113.4303524-1.8005359.4303524-.7201475 0-1.3100876-.1235302-1.7684847-.3722599-.4557262-.250399-.7855852-.6069672-.9808964-1.0777173-.1953113-.4720856-.295137-1.1147764-.295137-1.9310772v-4.4497574h1.0192909v4.4417446c0 .6653937.062099 1.1571773.1856291 1.4740155.1272027.317506.3402088.5635648.6413554.7341699.3018143.1716068.6747419.2567425 1.1087668.2567425.7485261 0 1.2837123-.1712729 1.6032214-.5111478.3181737-.3372041.4770936-.989577.4770936-1.9537801z"/><path d="m41.2684284 29.0736626v-7.7049446h1.0446647l4.054127 6.0509756v-6.0509756h.9762222v7.7049446h-1.0460001l-4.0517899-6.0506418v6.0506418z"/><path d="m48.9830551 29.0736626v-7.7049446h1.018957v7.7049446z"/><path d="m53.510937 29.0736626v-6.7904874h-2.5407153v-.9144572h6.1080666v.9144572h-2.5463911v6.7904874z"/><path d="m60.0463512 29.0736626v-3.2632l-2.9744064-4.4417446h1.2229488l1.5234276 2.3350542c.2824501.4326895.547873.870387.7922625 1.3100877.240383-.4136592.5255041-.8737256.8513566-1.3795316l1.4970523-2.2656103h1.187559l-3.0799078 4.4417446v3.2632z"/><path d="m5.88671388.69443993c.75486956.38962087 1.21827467 1.07237551 1.38988146 2.04926553h-1.03932284c-.12553337-.54520212-.3806065-.94517281-.77189669-1.19323477-.38661608-.25006514-.87839974-.37159213-1.47134461-.37159213-.69911404 0-1.2930605.25473926-1.77048796.778574-.48109997.51515424-.71914597 1.28771866-.71914597 2.31435462 0 .88674637.19397577 1.60889713.59561579 2.16778772.39429498.5588906 1.03965671.83700044 1.93308039.83700044.68709489 0 1.25600145-.19764829 1.70671968-.58726915.44404092-.39329339.67908212-1.02596823.68876422-1.89902612h-2.42519792v-.83900363h3.39707996v3.99436507h-.67173709l-.25407153-.96053062c-.34822157.37693398-.65771475.63634736-.92814568.78224652-.45405688.24973128-1.0253005.37760171-1.72608387.37760171-.90644443 0-1.68001045-.28645647-2.32904469-.86103874-.70779455-.71680891-1.06369501-1.70404876-1.06369501-2.95570996s.34555064-2.24557836 1.03932284-2.98408851c.66038566-.7044559 1.50806979-1.05601611 2.55206674-1.05601611.72114916 0 1.34046939.13655093 1.86764278.40631413"/><path d="m35.9462808 10.8860137h3.6731866c.6032947 0 1.1014218.0848018 1.4953829.2557408.7471907.3238494 1.1154442.9254748 1.1154442 1.8038745 0 .4557262-.0961532.8309909-.2971402 1.120786-.1989837.2884597-.4814338.5228331-.8396713.7007834.3175059.1208592.5555519.2807807.7158073.4754242.1599215.1993176.245391.5198284.2640875.9642032l.0407315 1.0229634c.0086805.2904629.0330527.5074753.0757875.6480327.0664392.2430539.180955.3983013.349557.4647405v.1749455h-1.3384662c-.0393961-.0651038-.069444-.1492378-.0904775-.2564086-.0196981-.1024967-.0393961-.302482-.0530846-.5992883l-.0704456-1.2723609c-.0253738-.5014657-.2126722-.832994-.5709097-1.0052686-.2023224-.0918129-.515822-.1418927-.9535195-.1418927h-2.4251979v3.2752191h-1.091072zm3.5536628 3.4982411c.4977933 0 .8947592-.0988241 1.1872252-.2927999.2887936-.1946435.4316879-.5431989.4316879-1.0500065 0-.5425312-.2009869-.9141234-.6126429-1.1107701-.2170125-.1028305-.5021335-.1552473-.8670483-.1552473h-2.6021466v2.6088238z"/></g></g></svg>